<svg version="1" xmlns="http://www.w3.org/2000/svg" width="933.333" height="933.333" viewBox="0 0 700.000000 700.000000"><path d="M330 32.1c-54.4 5-102.2 26.1-136 59.9-39.3 39.2-56.9 97.7-46.9 155.8 3.6 21.6 12.6 41.3 37.9 83.7 17.6 29.7 33.8 60.8 39.3 75.5 9.3 25.2 12.4 47.6 13.7 98.6.5 20.5.9 44.3.9 53-.1 17.6 1.2 26.2 6.2 39.7 9.6 26.4 29.8 48.6 54.4 59.8 8.9 4 25.2 8.4 36.5 9.9 26.5 3.5 57.3-4.3 82.5-20.9 14.6-9.6 30.5-27.6 36.5-41.6 5.2-11.9 9.1-52 11.5-118.5.8-22.3 1.8-47.7 2.2-56.4l.6-16 7.7-14.5c4.2-8 12.1-22.3 17.5-31.6 10.2-17.5 20.6-35.8 32.7-57.4 17.1-30.4 26.2-56.6 28.4-82.1.9-10.4-1.3-42.5-3.6-54.2-11.8-58.1-63.2-111.7-126.5-132.1-29.7-9.6-64.7-13.5-95.5-10.6zm42 10.4c21.3 2.2 33.7 5.2 54.2 13.1 57.5 22.1 97.6 64.9 113.3 120.8 6.6 23.5 7.1 50.6 1.4 75.4-2.4 10.3-12.9 31.8-34.9 71.7-39.9 72-48.1 93-55.5 141.6-1.9 12.5-3.5 23-3.5 23.3 0 .3-44.5.6-99 .6h-99v-9.9c0-37.8-11.1-77.4-33.9-121.6-9.6-18.5-17.4-31.9-25.6-43.5-28.4-40.5-39.4-90.8-29.5-135 5.7-25.7 19.1-50.7 40.1-74.9 38.2-44 106.8-68.6 171.9-61.6zM329.9 503c11.2.5 20.7.7 21.2.5.4-.3 18.4-.6 40.1-.6 33.4-.2 40.1.1 44.8 1.4 9.2 2.7 13.9 7.5 14.7 14.9l.5 4.5-7.3 1.2c-18.7 2.9-30.4 3.5-75.4 3.6-25.8.1-56.9.6-69 1-25.5.9-33.6-.2-42-5.7-6.4-4.2-7.6-7-4.4-10.4 3.2-3.4 9.4-7 15.5-9 5.8-1.8 24-3.3 33.9-2.8 3.9.3 16.2.9 27.4 1.4zm100.6 43.9c7.5 1.3 13.2 2.6 17.4 4.2l2.6 1.1-3.1 1.3c-10.3 4.3-31.3 6.1-79.4 6.9-16.8.3-42.4.8-57 1.2-27.5.7-38.5 0-52.7-3.3-4-.9-7.3-2-7.3-2.4 0-1.4 6.6-5.8 11.1-7.4 2.4-.9 6.6-1.9 9.3-2.3 8.4-1.2 151.2-.6 159.1.7z"/><path d="M259.4 166c-1.5.6-2.4 2.4-3.3 6.7-4.6 20.5-13 40.9-21.3 51.4-2.1 2.7-3.8 5.3-3.8 5.8 0 2 11.9 27.2 19.3 40.9 8.7 16.1 24 41.4 42.1 69.7 8.5 13.3 14.2 21.2 19.2 26.2 11.8 12 11.9 10.5.9-12.2-6.8-13.9-13.1-24.9-35.8-62.2-18.7-30.7-31.2-56.7-30-62.6.8-4.4 2.6-7.8 5.8-10.7 4.4-4.1 11.2-3.4 27 3 15.7 6.3 21.4 8 28.1 8 4.6 0 5.3-.3 9.2-4.4 9.7-10.2 17.9-10.6 41.7-2.2 19.4 6.9 26.2 7.8 34.6 4.7 3.6-1.4 7.5-3.9 10.7-7.1 4.9-4.8 5.4-5 10.8-5 3.1 0 7.5.5 9.7 1.2 5.4 1.6 11.2 7.3 12.6 12.3 3.6 13.2-2.1 34.7-13.6 50.8-1.8 2.6-4.8 7.8-6.6 11.5-1.8 3.7-8 15.7-13.9 26.7-15.5 29-19.2 39.4-17.4 49.1.9 4.7 1.2 4.5 10.9-11.7 14.9-24.8 62.7-118.7 62.7-123.2 0-3.8-4.8-8.7-14.8-15.3-10.3-6.7-15.9-11.8-17.7-15.9-1.2-2.6-1.1-3.8.5-8.5 3.4-9.9 2.1-18.4-3.5-22.8-6-4.7-14.1-3.7-19.5 2.5-4.3 4.8-5 7.1-6 19-1.1 12.3-3.3 17.9-8.6 21.9-3.4 2.6-4.5 2.9-11.3 2.9-6.1 0-8.5-.5-12.5-2.5-11.1-5.7-18.3-16.7-17.3-26.5.3-2.9 1.5-7.2 2.7-9.5l2.2-4.3-2.3-1.9c-7.7-6.2-12.8-7.4-16.7-3.8-3.1 3-4.5 6.1-8.7 19.5-7.7 24.4-12.7 30.1-24.3 27.7-2.6-.6-7.2-1.5-10.3-2.2-3.4-.6-6.5-2-7.7-3.3-4-4.2-4.4-7.1-3.1-21.6 1.4-15.7.8-18.4-5.1-21.3-3.7-1.9-12-2.3-15.6-.8zm6.6 14.7c0 1 .3 2.9.6 4.3.5 1.8.4 2.2-.4 1.5-1.7-1.5-2.7-7.5-1.3-7.5.6 0 1.1.8 1.1 1.7z"/></svg>